<!--?xml version="1.0" encoding="utf-8"?-->
<!-- Svg Vector Icons : http://www.onlinewebfonts.com/icon -->

<svg version="1.1" xmlns="http://www.w3.org/2000/svg" xmlns:xlink="http://www.w3.org/1999/xlink" x="0px" y="0px" viewBox="0 0 256 256" enable-background="new 0 0 256 256" xml:space="preserve">
<metadata> Svg Vector Icons : http://www.onlinewebfonts.com/icon </metadata>
<g><g><path fill="#ffffff" data-title="Layer 0" xs="0" d="M128,10C62.8,10,10,62.8,10,128c0,65.2,52.8,118,118,118c65.2,0,118-52.8,118-118C246,62.8,193.2,10,128,10z M186,90.9l-19.4,91.2c-1.3,6.5-5.3,8-10.7,5l-29.5-21.8l-14.2,13.8c-1.7,1.6-3,3-5.9,3c-3.8,0-3.2-1.4-4.5-5.1l-10-33l-29.2-9.1c-6.3-1.9-6.4-6.3,1.4-9.4l113.7-43.9C183,79.3,188,82.9,186,90.9L186,90.9z"/></g></g>
</svg>